<mxfile host="app.diagrams.net" modified="2023-01-26T12:01:49.823Z" agent="5.0 (Macintosh; Intel Mac OS X 10_15_7) AppleWebKit/537.36 (KHTML, like Gecko) Chrome/109.0.0.0 Safari/537.36" etag="DhTjeos4hJQVtUy0fz1J" version="20.8.11" type="github">
  <diagram name="Page-1" id="Uy1ApQYzt9IStjCKyEoG">
    <mxGraphModel dx="2522" dy="1415" grid="1" gridSize="10" guides="1" tooltips="1" connect="1" arrows="1" fold="1" page="1" pageScale="1" pageWidth="850" pageHeight="1100" math="0" shadow="0">
      <root>
        <mxCell id="0" />
        <mxCell id="1" parent="0" />
        <mxCell id="QSik6vEQDc31_XHXcR2p-1" value="" style="sketch=0;outlineConnect=0;fontColor=#232F3E;gradientColor=none;fillColor=#CC99FF;strokeColor=none;dashed=0;verticalLabelPosition=bottom;verticalAlign=top;align=center;html=1;fontSize=12;fontStyle=0;aspect=fixed;pointerEvents=1;shape=mxgraph.aws4.bucket;container=0;" parent="1" vertex="1">
          <mxGeometry x="240" y="280" width="75" height="78" as="geometry" />
        </mxCell>
        <mxCell id="QSik6vEQDc31_XHXcR2p-2" value="" style="shape=image;verticalLabelPosition=bottom;labelBackgroundColor=default;verticalAlign=top;aspect=fixed;imageAspect=0;image=data:image/svg+xml,PHN2ZyB4bWxucz0iaHR0cDovL3d3dy53My5vcmcvMjAwMC9zdmciIGZpbGw9Im5vbmUiIHZpZXdCb3g9IjAgMCA2NCA2NCIgaGVpZ2h0PSI4MDBweCIgd2lkdGg9IjgwMHB4Ij48cGF0aCBmaWxsPSIjNDA0MEIyIiBkPSJNMzguMDYgMjYuMTUxdjExLjQ3M0w0OCAzMS44OTFWMjAuNDA2bC05Ljk0IDUuNzQ1eiIvPjxwYXRoIGZpbGw9IiM1QzRFRTUiIGQ9Im0yNy4wMyAyMC40MDYgOS45NCA1Ljc0NXYxMS40NzNsLTkuOTQtNS43NFYyMC40MDd6TTE2IDE0djExLjQ3OWw5Ljk0IDUuNzR2LTExLjQ4TDE2IDE0em0xMS4wMyAzMC42MjQgOS45NCA1Ljc0di0xMS40OGwtOS45NC01LjczOXYxMS40OHoiLz48L3N2Zz4=;clipPath=inset(21.33% 25% 21% 24.67%);imageBackground=none;container=0;" parent="1" vertex="1">
          <mxGeometry x="240" y="280" width="34.91" height="40" as="geometry" />
        </mxCell>
        <mxCell id="HuJJtsuIyWC_aBRujNCc-4" value="" style="group" vertex="1" connectable="0" parent="1">
          <mxGeometry x="440" y="280" width="78" height="61" as="geometry" />
        </mxCell>
        <mxCell id="HuJJtsuIyWC_aBRujNCc-1" value="" style="sketch=0;outlineConnect=0;fontColor=#232F3E;gradientColor=none;fillColor=#CC99FF;strokeColor=none;dashed=0;verticalLabelPosition=bottom;verticalAlign=top;align=center;html=1;fontSize=12;fontStyle=0;aspect=fixed;pointerEvents=1;shape=mxgraph.aws4.role;" vertex="1" parent="HuJJtsuIyWC_aBRujNCc-4">
          <mxGeometry y="17" width="78" height="44" as="geometry" />
        </mxCell>
        <mxCell id="HuJJtsuIyWC_aBRujNCc-3" value="" style="shape=image;verticalLabelPosition=bottom;labelBackgroundColor=default;verticalAlign=top;aspect=fixed;imageAspect=0;image=data:image/svg+xml,PHN2ZyB4bWxucz0iaHR0cDovL3d3dy53My5vcmcvMjAwMC9zdmciIGZpbGw9Im5vbmUiIHZpZXdCb3g9IjAgMCA2NCA2NCIgaGVpZ2h0PSI4MDBweCIgd2lkdGg9IjgwMHB4Ij48cGF0aCBmaWxsPSIjNDA0MEIyIiBkPSJNMzguMDYgMjYuMTUxdjExLjQ3M0w0OCAzMS44OTFWMjAuNDA2bC05Ljk0IDUuNzQ1eiIvPjxwYXRoIGZpbGw9IiM1QzRFRTUiIGQ9Im0yNy4wMyAyMC40MDYgOS45NCA1Ljc0NXYxMS40NzNsLTkuOTQtNS43NFYyMC40MDd6TTE2IDE0djExLjQ3OWw5Ljk0IDUuNzR2LTExLjQ4TDE2IDE0em0xMS4wMyAzMC42MjQgOS45NCA1Ljc0di0xMS40OGwtOS45NC01LjczOXYxMS40OHoiLz48L3N2Zz4=;clipPath=inset(21.33% 25% 21% 24.67%);imageBackground=none;container=0;" vertex="1" parent="HuJJtsuIyWC_aBRujNCc-4">
          <mxGeometry width="34.91" height="40" as="geometry" />
        </mxCell>
      </root>
    </mxGraphModel>
  </diagram>
</mxfile>
